<svg xmlns="http://www.w3.org/2000/svg" viewBox="0 0 32 32" shape-rendering="geometricPrecision">
  <rect width="32" height="32" fill="#0C0C0C"/>
  <path fill="#FF3B00" d="M9.88 23.24Q8.16 23.24 6.89 22.72Q5.62 22.2 4.98 21.3L6.64 19.76Q7.24 20.42 8.05 20.79Q8.86 21.16 9.9 21.16Q10.78 21.16 11.28 20.89Q11.78 20.62 11.78 20.06Q11.78 19.62 11.44 19.45Q11.1 19.28 10.5 19.18L8.84 18.92Q8.14 18.82 7.54 18.61Q6.94 18.4 6.5 18.04Q6.06 17.68 5.8 17.16Q5.54 16.64 5.54 15.9Q5.54 14.28 6.78 13.36Q8.02 12.44 10.26 12.44Q11.78 12.44 12.85 12.85Q13.92 13.26 14.56 14.02L13.08 15.7Q12.62 15.2 11.9 14.86Q11.18 14.52 10.16 14.52Q8.44 14.52 8.44 15.56Q8.44 16.02 8.78 16.19Q9.12 16.36 9.72 16.46L11.36 16.72Q12.06 16.82 12.66 17.03Q13.26 17.24 13.71 17.6Q14.16 17.96 14.42 18.48Q14.68 19 14.68 19.74Q14.68 21.36 13.43 22.3Q12.18 23.24 9.88 23.24ZM17.3 8.2L20.26 8.2L20.26 14.56L20.38 14.56Q20.56 14.12 20.82 13.74Q21.08 13.36 21.45 13.07Q21.82 12.78 22.31 12.61Q22.8 12.44 23.42 12.44Q24.16 12.44 24.78 12.69Q25.4 12.94 25.84 13.44Q26.28 13.94 26.53 14.66Q26.78 15.38 26.78 16.32L26.78 23L23.82 23L23.82 16.72Q23.82 14.72 22.08 14.72Q21.74 14.72 21.41 14.81Q21.08 14.9 20.82 15.09Q20.56 15.28 20.41 15.56Q20.26 15.84 20.26 16.22L20.26 23L17.3 23Z"/>
</svg>
